# This file uses centimeters as units for non-parametric coordinates.

mtllib drone_shop.mtl
g default
v -2.865105 0.404563 -2.464213
v 2.865105 0.404563 -2.464213
v -2.865105 3.928547 -2.464213
v 2.865105 3.928547 -2.464213
v -2.865105 3.928547 -5.636674
v 2.865105 3.928547 -5.636674
v -2.865105 0.404563 -5.636674
v 2.865105 0.404563 -5.636674
v -2.865105 3.324547 -2.464213
v 2.865105 3.324547 -2.464213
v 2.865105 3.324547 -5.636674
v -2.865105 3.324547 -5.636674
v -2.060062 3.324547 -2.464213
v -2.060062 0.404563 -2.464213
v 1.977530 3.324547 -2.464213
v 1.977530 0.404563 -2.464213
v -2.865105 3.324547 -2.149120
v -2.060062 3.324547 -2.149120
v 1.977530 3.324547 -2.149120
v 2.865105 3.324547 -2.149120
v 2.865105 3.928547 -2.149120
v -2.865105 3.928547 -2.149120
v 1.977530 0.404563 -2.149120
v 2.865105 0.404563 -2.149120
v -2.865105 0.404563 -2.149120
v -2.060062 0.404563 -2.149120
vt 0.328553 0.436876
vt 0.328553 0.150786
vt 0.373163 0.150786
vt 0.373163 0.436876
vt 0.112887 0.436876
vt 0.112887 0.150786
vt 0.373163 0.465291
vt 0.328553 0.465291
vt 0.112887 0.465291
vt 0.353346 0.504291
vt 0.353346 0.218202
vt 0.397957 0.218202
vt 0.397957 0.504291
vt 0.137680 0.504291
vt 0.137680 0.218202
vt 0.353346 0.189787
vt 0.397957 0.189787
vt 0.137680 0.189787
vt 0.207448 0.396343
vt 0.207448 0.180678
vt 0.235863 0.180678
vt 0.235863 0.396343
vt 0.270944 0.180678
vt 0.270944 0.396343
vt 0.242529 0.396343
vt 0.242529 0.180678
vt 0.136406 0.531601
vt 0.136406 0.150148
vt 0.422495 0.150148
vt 0.422495 0.531601
vt 0.107991 0.531601
vt 0.107991 0.150148
vt 0.108895 0.532239
vt 0.108895 0.150786
vt 0.394984 0.150786
vt 0.394984 0.209871
vt 0.394984 0.478648
vt 0.394984 0.532239
vt 0.423399 0.150786
vt 0.423399 0.209871
vt 0.423399 0.478648
vt 0.423399 0.532239
vt 0.172367 0.449455
vt 0.172367 0.180678
vt 0.200782 0.180678
vt 0.200782 0.449455
vt 0.334659 0.531601
vt 0.334659 0.478010
vt 0.334659 0.209232
vt 0.334659 0.150148
vt 0.379270 0.150148
vt 0.379270 0.531601
vt 0.118994 0.531601
vt 0.118994 0.478010
vt 0.118994 0.209232
vt 0.118994 0.150148
vt 0.135764 0.534201
vt 0.135764 0.152748
vt 0.180374 0.152748
vt 0.180374 0.534201
vt 0.396040 0.152748
vt 0.396040 0.534201
vt 0.858637 0.888862
vt 0.448160 0.888862
vt 0.448160 0.620084
vt 0.858637 0.620084
vn 0.000000 0.000000 1.000000
vn 0.000000 0.000000 1.000000
vn 0.000000 0.000000 1.000000
vn 0.000000 0.000000 1.000000
vn 0.000000 0.000000 1.000000
vn 0.000000 0.000000 1.000000
vn 0.000000 1.000000 0.000000
vn 0.000000 1.000000 0.000000
vn 0.000000 1.000000 0.000000
vn 0.000000 1.000000 0.000000
vn 0.000000 0.000000 -1.000000
vn 0.000000 0.000000 -1.000000
vn 0.000000 0.000000 -1.000000
vn 0.000000 0.000000 -1.000000
vn 0.000000 -1.000000 0.000000
vn 0.000000 -1.000000 0.000000
vn 0.000000 -1.000000 0.000000
vn 0.000000 -1.000000 0.000000
vn 0.000000 -1.000000 0.000000
vn 0.000000 -1.000000 0.000000
vn 1.000000 0.000000 0.000000
vn 1.000000 0.000000 0.000000
vn 1.000000 0.000000 0.000000
vn 1.000000 0.000000 0.000000
vn -1.000000 0.000000 0.000000
vn -1.000000 0.000000 0.000000
vn -1.000000 0.000000 0.000000
vn -1.000000 0.000000 0.000000
vn 0.000000 0.000000 1.000000
vn 0.000000 0.000000 1.000000
vn 1.000000 0.000000 0.000000
vn 1.000000 0.000000 0.000000
vn 0.000000 0.000000 -1.000000
vn 0.000000 0.000000 -1.000000
vn -1.000000 0.000000 0.000000
vn -1.000000 0.000000 0.000000
vn 0.000000 0.000000 1.000000
vn 0.000000 0.000000 1.000000
vn 0.000000 0.000000 1.000000
vn 0.000000 0.000000 1.000000
vn 0.000000 0.000000 1.000000
vn 0.000000 0.000000 1.000000
vn 0.000000 -1.000000 0.000000
vn 0.000000 -1.000000 0.000000
vn 0.000000 -1.000000 0.000000
vn 0.000000 -1.000000 0.000000
vn 1.000000 0.000000 0.000000
vn 1.000000 0.000000 0.000000
vn 0.000000 1.000000 0.000000
vn 0.000000 1.000000 0.000000
vn -1.000000 0.000000 0.000000
vn -1.000000 0.000000 0.000000
vn -1.000000 0.000000 0.000000
vn -1.000000 0.000000 0.000000
vn -1.000000 0.000000 0.000000
vn -1.000000 0.000000 0.000000
vn 0.000000 -1.000000 0.000000
vn 0.000000 -1.000000 0.000000
vn 1.000000 0.000000 0.000000
vn 0.000000 -1.000000 0.000000
vn 0.000000 -1.000000 0.000000
vn 1.000000 0.000000 0.000000
vn 1.000000 0.000000 0.000000
vn 1.000000 0.000000 0.000000
vn 1.000000 0.000000 0.000000
vn -1.000000 0.000000 0.000000
s 1
g pCube1
usemtl lambert3SG
f 17/47/1 18/48/2 22/52/3
f 22/52/3 18/48/2 21/51/4
f 20/50/5 21/51/4 19/49/6
f 18/48/2 19/49/6 21/51/4
s 2
f 3/27/7 4/28/8 5/30/9
f 5/30/9 4/28/8 6/29/10
s 3
f 5/57/11 6/58/12 12/60/13
f 12/60/13 6/58/12 11/59/14
s 4
f 7/33/15 8/34/16 1/38/17
f 1/38/17 8/34/16 14/37/18
f 2/35/19 16/36/20 8/34/16
f 8/34/16 16/36/20 14/37/18
s 6
f 10/1/21 11/2/22 4/4/23
f 4/4/23 11/2/22 6/3/24
s 7
f 12/10/25 9/11/26 5/13/27
f 5/13/27 9/11/26 3/12/28
s 1
f 19/49/6 23/55/29 20/50/5
f 20/50/5 23/55/29 24/56/30
s 6
f 2/5/31 8/6/32 10/1/21
f 10/1/21 8/6/32 11/2/22
s 3
f 12/60/13 11/59/14 7/62/33
f 7/62/33 11/59/14 8/61/34
s 7
f 7/14/35 1/15/36 12/10/25
f 12/10/25 1/15/36 9/11/26
s 1
f 25/53/37 26/54/38 17/47/1
f 17/47/1 26/54/38 18/48/2
s 8
f 13/63/39 14/64/40 15/66/41
f 15/66/41 14/64/40 16/65/42
s 9
f 13/43/43 15/44/44 18/46/45
f 18/46/45 15/44/44 19/45/46
s 6
f 10/1/21 4/4/23 20/8/47
f 20/8/47 4/4/23 21/7/48
s 2
f 4/28/8 3/27/7 21/32/49
f 21/32/49 3/27/7 22/31/50
s 7
f 3/12/28 9/11/26 22/17/51
f 22/17/51 9/11/26 17/16/52
s 10
f 15/19/53 16/20/54 19/22/55
f 19/22/55 16/20/54 23/21/56
s 4
f 16/36/20 2/35/19 23/40/57
f 23/40/57 2/35/19 24/39/58
s 6
f 2/5/31 10/1/21 24/9/59
f 24/9/59 10/1/21 20/8/47
s 4
f 1/38/17 14/37/18 25/42/60
f 25/42/60 14/37/18 26/41/61
s 11
f 14/23/62 13/24/63 26/26/64
f 26/26/64 13/24/63 18/25/65
s 7
f 9/11/26 1/15/36 17/16/52
f 17/16/52 1/15/36 25/18/66
g default
v 2.319017 3.897360 -2.647221
v 2.421099 3.897360 -2.647221
v 2.319017 4.179565 -2.647221
v 2.421099 4.179565 -2.647221
v 2.319017 4.179565 -2.929425
v 2.421099 4.179565 -2.929425
v 2.319017 3.897360 -2.929425
v 2.421099 3.897360 -2.929425
v 2.340070 6.123880 -2.703662
v 2.400047 6.123880 -2.703662
v 2.400047 6.123880 -2.872985
v 2.340070 6.123880 -2.872985
vt 0.141011 0.718142
vt 0.167764 0.718142
vt 0.167764 0.742480
vt 0.141011 0.742480
vt 0.162413 0.910167
vt 0.146362 0.910167
vt 0.169022 0.718142
vt 0.195775 0.718142
vt 0.195775 0.742480
vt 0.169022 0.742480
vt 0.190424 0.910167
vt 0.174373 0.910167
vt 0.301586 0.150194
vt 0.331077 0.150194
vt 0.331077 0.233452
vt 0.301586 0.233452
vt 0.244573 0.150194
vt 0.294768 0.150194
vt 0.294768 0.288957
vt 0.244573 0.288957
vt 0.118992 0.718142
vt 0.128670 0.718142
vt 0.128670 0.742480
vt 0.118992 0.742480
vt 0.126674 0.910167
vt 0.120988 0.910167
vt 0.130020 0.885828
vt 0.139697 0.885828
vt 0.139697 0.910167
vt 0.130020 0.910167
vt 0.132015 0.718142
vt 0.137701 0.718142
vn 0.000000 0.000000 1.000000
vn 0.000000 0.000000 1.000000
vn 0.000000 0.025319 0.999679
vn 0.000000 0.025292 0.999680
vn 0.000000 1.000000 0.000000
vn 0.000000 1.000000 0.000000
vn 0.000000 1.000000 0.000000
vn 0.000000 1.000000 0.000000
vn 0.000000 0.025292 -0.999680
vn 0.000000 0.025319 -0.999679
vn 0.000000 0.000000 -1.000000
vn 0.000000 0.000000 -1.000000
vn 0.000000 -1.000000 0.000000
vn 0.000000 -1.000000 0.000000
vn 0.000000 -1.000000 0.000000
vn 0.000000 -1.000000 0.000000
vn 1.000000 0.000000 0.000000
vn 1.000000 0.000000 0.000000
vn 0.999955 0.009432 0.000000
vn 0.999956 0.009405 0.000000
vn -1.000000 0.000000 0.000000
vn -1.000000 0.000000 0.000000
vn -0.999955 0.009432 0.000000
vn -0.999956 0.009405 0.000000
vn 0.000000 0.029016 0.999579
vn 0.000000 0.029016 0.999579
vn 0.999941 0.010827 0.000000
vn 0.999941 0.010827 0.000000
vn 0.000000 0.029016 -0.999579
vn 0.000000 0.029016 -0.999579
vn -0.999941 0.010827 0.000000
vn -0.999941 0.010827 0.000000
s 1
g pCube2
usemtl lambert3SG
f 27/87/67 28/88/68 29/90/69
f 29/90/69 28/88/68 30/89/70
s 2
f 35/79/71 36/80/72 38/82/73
f 38/82/73 36/80/72 37/81/74
s 3
f 31/93/75 32/94/76 33/96/77
f 33/96/77 32/94/76 34/95/78
s 4
f 33/83/79 34/84/80 27/86/81
f 27/86/81 34/84/80 28/85/82
s 5
f 28/67/83 34/68/84 30/70/85
f 30/70/85 34/68/84 32/69/86
s 6
f 33/73/87 27/74/88 31/76/89
f 31/76/89 27/74/88 29/75/90
s 1
f 29/90/69 30/89/70 35/92/91
f 35/92/91 30/89/70 36/91/92
s 5
f 30/70/85 32/69/86 36/72/93
f 36/72/93 32/69/86 37/71/94
s 3
f 32/94/76 31/93/75 37/98/95
f 37/98/95 31/93/75 38/97/96
s 6
f 31/76/89 29/75/90 38/78/97
f 38/78/97 29/75/90 35/77/98
g default
v -2.865105 0.404563 -2.464213
v 2.865105 0.404563 -2.464213
v -2.865105 3.928547 -2.464213
v 2.865105 3.928547 -2.464213
v -2.865105 3.928547 -5.636674
v 2.865105 3.928547 -5.636674
v -2.865105 0.404563 -5.636674
v 2.865105 0.404563 -5.636674
v -2.865105 3.324547 -2.464213
v 2.865105 3.324547 -2.464213
v 2.865105 3.324547 -5.636674
v -2.865105 3.324547 -5.636674
v -2.060062 3.324547 -2.464213
v -2.060062 0.404563 -2.464213
v 1.977530 3.324547 -2.464213
v 1.977530 0.404563 -2.464213
v -2.865105 3.324547 -2.149120
v -2.060062 3.324547 -2.149120
v 1.977530 3.324547 -2.149120
v 2.865105 3.324547 -2.149120
v 2.865105 3.928547 -2.149120
v -2.865105 3.928547 -2.149120
v 1.977530 0.404563 -2.149120
v 2.865105 0.404563 -2.149120
v -2.865105 0.404563 -2.149120
v -2.060062 0.404563 -2.149120
vt 0.328553 0.436876
vt 0.328553 0.150786
vt 0.373163 0.150786
vt 0.373163 0.436876
vt 0.112887 0.436876
vt 0.112887 0.150786
vt 0.373163 0.465291
vt 0.328553 0.465291
vt 0.112887 0.465291
vt 0.353346 0.504291
vt 0.353346 0.218202
vt 0.397957 0.218202
vt 0.397957 0.504291
vt 0.137680 0.504291
vt 0.137680 0.218202
vt 0.353346 0.189787
vt 0.397957 0.189787
vt 0.137680 0.189787
vt 0.207448 0.396343
vt 0.207448 0.180678
vt 0.235863 0.180678
vt 0.235863 0.396343
vt 0.270944 0.180678
vt 0.270944 0.396343
vt 0.242529 0.396343
vt 0.242529 0.180678
vt 0.136406 0.531601
vt 0.136406 0.150148
vt 0.422495 0.150148
vt 0.422495 0.531601
vt 0.107991 0.531601
vt 0.107991 0.150148
vt 0.108895 0.532239
vt 0.108895 0.150786
vt 0.394984 0.150786
vt 0.394984 0.209871
vt 0.394984 0.478648
vt 0.394984 0.532239
vt 0.423399 0.150786
vt 0.423399 0.209871
vt 0.423399 0.478648
vt 0.423399 0.532239
vt 0.172367 0.449455
vt 0.172367 0.180678
vt 0.200782 0.180678
vt 0.200782 0.449455
vt 0.334659 0.531601
vt 0.334659 0.478010
vt 0.334659 0.209232
vt 0.334659 0.150148
vt 0.379270 0.150148
vt 0.379270 0.531601
vt 0.118994 0.531601
vt 0.118994 0.478010
vt 0.118994 0.209232
vt 0.118994 0.150148
vt 0.135764 0.534201
vt 0.135764 0.152748
vt 0.180374 0.152748
vt 0.180374 0.534201
vt 0.396040 0.152748
vt 0.396040 0.534201
vt 0.858637 0.888862
vt 0.448160 0.888862
vt 0.448160 0.620084
vt 0.858637 0.620084
vn 0.000000 0.000000 1.000000
vn 0.000000 0.000000 1.000000
vn 0.000000 0.000000 1.000000
vn 0.000000 0.000000 1.000000
vn 0.000000 0.000000 1.000000
vn 0.000000 0.000000 1.000000
vn 0.000000 1.000000 0.000000
vn 0.000000 1.000000 0.000000
vn 0.000000 1.000000 0.000000
vn 0.000000 1.000000 0.000000
vn 0.000000 0.000000 -1.000000
vn 0.000000 0.000000 -1.000000
vn 0.000000 0.000000 -1.000000
vn 0.000000 0.000000 -1.000000
vn 0.000000 -1.000000 0.000000
vn 0.000000 -1.000000 0.000000
vn 0.000000 -1.000000 0.000000
vn 0.000000 -1.000000 0.000000
vn 0.000000 -1.000000 0.000000
vn 0.000000 -1.000000 0.000000
vn 1.000000 0.000000 0.000000
vn 1.000000 0.000000 0.000000
vn 1.000000 0.000000 0.000000
vn 1.000000 0.000000 0.000000
vn -1.000000 0.000000 0.000000
vn -1.000000 0.000000 0.000000
vn -1.000000 0.000000 0.000000
vn -1.000000 0.000000 0.000000
vn 0.000000 0.000000 1.000000
vn 0.000000 0.000000 1.000000
vn 1.000000 0.000000 0.000000
vn 1.000000 0.000000 0.000000
vn 0.000000 0.000000 -1.000000
vn 0.000000 0.000000 -1.000000
vn -1.000000 0.000000 0.000000
vn -1.000000 0.000000 0.000000
vn 0.000000 0.000000 1.000000
vn 0.000000 0.000000 1.000000
vn 0.000000 0.000000 1.000000
vn 0.000000 0.000000 1.000000
vn 0.000000 0.000000 1.000000
vn 0.000000 0.000000 1.000000
vn 0.000000 -1.000000 0.000000
vn 0.000000 -1.000000 0.000000
vn 0.000000 -1.000000 0.000000
vn 0.000000 -1.000000 0.000000
vn 1.000000 0.000000 0.000000
vn 1.000000 0.000000 0.000000
vn 0.000000 1.000000 0.000000
vn 0.000000 1.000000 0.000000
vn -1.000000 0.000000 0.000000
vn -1.000000 0.000000 0.000000
vn -1.000000 0.000000 0.000000
vn -1.000000 0.000000 0.000000
vn -1.000000 0.000000 0.000000
vn -1.000000 0.000000 0.000000
vn 0.000000 -1.000000 0.000000
vn 0.000000 -1.000000 0.000000
vn 1.000000 0.000000 0.000000
vn 0.000000 -1.000000 0.000000
vn 0.000000 -1.000000 0.000000
vn 1.000000 0.000000 0.000000
vn 1.000000 0.000000 0.000000
vn 1.000000 0.000000 0.000000
vn 1.000000 0.000000 0.000000
vn -1.000000 0.000000 0.000000
s 1
g pCube1
f 55/145/99 56/146/100 60/150/101
f 60/150/101 56/146/100 59/149/102
f 58/148/103 59/149/102 57/147/104
f 56/146/100 57/147/104 59/149/102
s 2
f 41/125/105 42/126/106 43/128/107
f 43/128/107 42/126/106 44/127/108
s 3
f 43/155/109 44/156/110 50/158/111
f 50/158/111 44/156/110 49/157/112
s 4
f 45/131/113 46/132/114 39/136/115
f 39/136/115 46/132/114 52/135/116
f 40/133/117 54/134/118 46/132/114
f 46/132/114 54/134/118 52/135/116
s 6
f 48/99/119 49/100/120 42/102/121
f 42/102/121 49/100/120 44/101/122
s 7
f 50/108/123 47/109/124 43/111/125
f 43/111/125 47/109/124 41/110/126
s 1
f 57/147/104 61/153/127 58/148/103
f 58/148/103 61/153/127 62/154/128
s 6
f 40/103/129 46/104/130 48/99/119
f 48/99/119 46/104/130 49/100/120
s 3
f 50/158/111 49/157/112 45/160/131
f 45/160/131 49/157/112 46/159/132
s 7
f 45/112/133 39/113/134 50/108/123
f 50/108/123 39/113/134 47/109/124
s 1
f 63/151/135 64/152/136 55/145/99
f 55/145/99 64/152/136 56/146/100
s 8
f 51/161/137 52/162/138 53/164/139
f 53/164/139 52/162/138 54/163/140
s 9
f 51/141/141 53/142/142 56/144/143
f 56/144/143 53/142/142 57/143/144
s 6
f 48/99/119 42/102/121 58/106/145
f 58/106/145 42/102/121 59/105/146
s 2
f 42/126/106 41/125/105 59/130/147
f 59/130/147 41/125/105 60/129/148
s 7
f 41/110/126 47/109/124 60/115/149
f 60/115/149 47/109/124 55/114/150
s 10
f 53/117/151 54/118/152 57/120/153
f 57/120/153 54/118/152 61/119/154
s 4
f 54/134/118 40/133/117 61/138/155
f 61/138/155 40/133/117 62/137/156
s 6
f 40/103/129 48/99/119 62/107/157
f 62/107/157 48/99/119 58/106/145
s 4
f 39/136/115 52/135/116 63/140/158
f 63/140/158 52/135/116 64/139/159
s 11
f 52/121/160 51/122/161 64/124/162
f 64/124/162 51/122/161 56/123/163
s 7
f 47/109/124 39/113/134 55/114/150
f 55/114/150 39/113/134 63/116/164
g default
v 2.319017 3.897360 -2.647221
v 2.421099 3.897360 -2.647221
v 2.319017 4.179565 -2.647221
v 2.421099 4.179565 -2.647221
v 2.319017 4.179565 -2.929425
v 2.421099 4.179565 -2.929425
v 2.319017 3.897360 -2.929425
v 2.421099 3.897360 -2.929425
v 2.340070 6.123880 -2.703662
v 2.400047 6.123880 -2.703662
v 2.400047 6.123880 -2.872985
v 2.340070 6.123880 -2.872985
vt 0.141011 0.718142
vt 0.167764 0.718142
vt 0.167764 0.742480
vt 0.141011 0.742480
vt 0.162413 0.910167
vt 0.146362 0.910167
vt 0.169022 0.718142
vt 0.195775 0.718142
vt 0.195775 0.742480
vt 0.169022 0.742480
vt 0.190424 0.910167
vt 0.174373 0.910167
vt 0.301586 0.150194
vt 0.331077 0.150194
vt 0.331077 0.233452
vt 0.301586 0.233452
vt 0.244573 0.150194
vt 0.294768 0.150194
vt 0.294768 0.288957
vt 0.244573 0.288957
vt 0.118992 0.718142
vt 0.128670 0.718142
vt 0.128670 0.742480
vt 0.118992 0.742480
vt 0.126674 0.910167
vt 0.120988 0.910167
vt 0.130020 0.885828
vt 0.139697 0.885828
vt 0.139697 0.910167
vt 0.130020 0.910167
vt 0.132015 0.718142
vt 0.137701 0.718142
vn 0.000000 0.000000 1.000000
vn 0.000000 0.000000 1.000000
vn 0.000000 0.025319 0.999679
vn 0.000000 0.025292 0.999680
vn 0.000000 1.000000 0.000000
vn 0.000000 1.000000 0.000000
vn 0.000000 1.000000 0.000000
vn 0.000000 1.000000 0.000000
vn 0.000000 0.025292 -0.999680
vn 0.000000 0.025319 -0.999679
vn 0.000000 0.000000 -1.000000
vn 0.000000 0.000000 -1.000000
vn 0.000000 -1.000000 0.000000
vn 0.000000 -1.000000 0.000000
vn 0.000000 -1.000000 0.000000
vn 0.000000 -1.000000 0.000000
vn 1.000000 0.000000 0.000000
vn 1.000000 0.000000 0.000000
vn 0.999955 0.009432 0.000000
vn 0.999956 0.009405 0.000000
vn -1.000000 0.000000 0.000000
vn -1.000000 0.000000 0.000000
vn -0.999955 0.009432 0.000000
vn -0.999956 0.009405 0.000000
vn 0.000000 0.029016 0.999579
vn 0.000000 0.029016 0.999579
vn 0.999941 0.010827 0.000000
vn 0.999941 0.010827 0.000000
vn 0.000000 0.029016 -0.999579
vn 0.000000 0.029016 -0.999579
vn -0.999941 0.010827 0.000000
vn -0.999941 0.010827 0.000000
s 1
g pCube2
f 65/185/165 66/186/166 67/188/167
f 67/188/167 66/186/166 68/187/168
s 2
f 73/177/169 74/178/170 76/180/171
f 76/180/171 74/178/170 75/179/172
s 3
f 69/191/173 70/192/174 71/194/175
f 71/194/175 70/192/174 72/193/176
s 4
f 71/181/177 72/182/178 65/184/179
f 65/184/179 72/182/178 66/183/180
s 5
f 66/165/181 72/166/182 68/168/183
f 68/168/183 72/166/182 70/167/184
s 6
f 71/171/185 65/172/186 69/174/187
f 69/174/187 65/172/186 67/173/188
s 1
f 67/188/167 68/187/168 73/190/189
f 73/190/189 68/187/168 74/189/190
s 5
f 68/168/183 70/167/184 74/170/191
f 74/170/191 70/167/184 75/169/192
s 3
f 70/192/174 69/191/173 75/196/193
f 75/196/193 69/191/173 76/195/194
s 6
f 69/174/187 67/173/188 76/176/195
f 76/176/195 67/173/188 73/175/196
