# This file uses centimeters as units for non-parametric coordinates.

mtllib merchantupgrade_head.mtl
g default
v -0.500000 2.168475 0.497383
v 0.000000 2.168475 0.497383
v 0.500000 2.168475 0.497383
v -0.671276 2.490473 0.510876
v 0.000000 2.484974 0.642113
v 0.671276 2.490473 0.510876
v -0.671276 2.812471 0.524368
v 0.000000 2.686428 0.704306
v 0.671276 2.812471 0.524368
v -0.500000 3.067917 0.535071
v 0.000000 2.947373 0.583772
v 0.500000 3.067916 0.535071
v -0.500000 3.097749 -0.176904
v 0.000000 3.097749 -0.176904
v 0.500000 3.097749 -0.176904
v -0.671276 2.854335 -0.474756
v 0.000000 2.854335 -0.474756
v 0.671276 2.854335 -0.474756
v -0.671432 2.524171 -0.199842
v 0.000000 2.520267 -0.200173
v 0.671120 2.524171 -0.199842
v -0.500000 2.197260 -0.189587
v 0.000000 2.197260 -0.189587
v 0.500000 2.197260 -0.189587
v -0.600746 2.526286 0.465005
v -0.070530 2.526286 0.465005
v -0.070530 2.780620 0.475662
v -0.600746 2.780620 0.475662
v -0.500000 3.067917 0.535071
v 0.000000 2.947373 0.583772
v 0.000000 3.097749 -0.176904
v -0.500000 3.097749 -0.176904
v 0.500000 3.067916 0.535071
v 0.500000 3.097749 -0.176904
v 0.000000 3.028813 0.171808
v 0.500000 3.082833 0.179084
v -0.500000 3.082833 0.179084
v 0.271685 3.384096 0.166633
v 0.451191 3.410093 0.170349
v 0.452350 3.421072 -0.090704
v 0.270526 3.434608 -0.089093
v -0.271685 3.384096 0.166633
v -0.451191 3.410093 0.170349
v -0.270526 3.434608 -0.089093
v -0.452350 3.421072 -0.090704
vt 0.492750 0.263006
vt 0.492750 0.107364
vt 0.566589 0.101946
vt 0.565702 0.263006
vt 0.638655 0.036641
vt 0.638655 0.263006
vt 0.696530 0.101698
vt 0.696530 0.263006
vt 0.494253 0.216133
vt 0.494253 0.060491
vt 0.567206 0.060491
vt 0.568092 0.221551
vt 0.640159 0.060491
vt 0.640159 0.286856
vt 0.698034 0.060491
vt 0.698034 0.221798
vt 0.226175 0.032946
vt 0.242705 0.095703
vt 0.171174 0.121724
vt 0.171174 0.043369
vt 0.325916 0.169796
vt 0.325916 0.060123
vt 0.426461 0.082466
vt 0.426449 0.162892
vt 0.313077 0.235556
vt 0.313077 0.125883
vt 0.413610 0.132786
vt 0.413623 0.213212
vt 0.534813 0.280192
vt 0.522656 0.167010
vt 0.616600 0.167010
vt 0.615467 0.280192
vt 0.534813 0.280192
vt 0.522656 0.167010
vt 0.534813 0.053828
vt 0.615467 0.053828
vt 0.696120 0.280192
vt 0.696120 0.280192
vt 0.320630 0.060873
vt 0.319823 0.005619
vt 0.400249 0.005262
vt 0.399928 0.061229
vt 0.422592 0.144500
vt 0.314461 0.144500
vt 0.399928 0.227771
vt 0.320630 0.228128
vt 0.319823 0.283381
vt 0.400249 0.283738
vt 0.548920 0.299912
vt 0.548920 0.186730
vt 0.704562 0.186730
vt 0.704562 0.299912
vt 0.548920 0.073548
vt 0.704562 0.073548
vt 0.176404 0.214015
vt 0.135972 0.007389
vt 0.190972 0.029099
vt 0.190972 0.192305
vt 0.268595 0.007389
vt 0.211633 0.214015
vt 0.197064 0.192305
vt 0.197064 0.029099
vt 0.485824 0.295148
vt 0.485824 0.181966
vt 0.558777 0.181966
vt 0.558777 0.333919
vt 0.485824 0.068784
vt 0.558777 0.030013
vt 0.631729 0.030013
vt 0.604928 0.181966
vt 0.689604 0.068784
vt 0.662803 0.181966
vt 0.631729 0.333919
vt 0.689604 0.295148
vt 0.029723 0.194439
vt 0.029723 0.031232
vt 0.108079 0.031232
vt 0.241295 0.038516
vt 0.251718 0.060226
vt 0.152517 0.060226
vt 0.626426 0.326810
vt 0.627312 0.174822
vt 0.700265 0.174822
vt 0.700265 0.288004
vt 0.554359 0.326775
vt 0.554359 0.174822
vt 0.626426 0.022904
vt 0.700265 0.061639
vt 0.496485 0.288004
vt 0.496485 0.174822
vt 0.554359 0.022869
vt 0.496485 0.061639
vt 0.316966 0.214394
vt 0.333673 0.060488
vt 0.434206 0.075513
vt 0.426163 0.130766
vt 0.397381 0.048247
vt 0.397381 0.202153
vt 0.292652 0.118882
vt 0.296835 0.062915
vt 0.337116 0.208249
vt 0.320409 0.054344
vt 0.429606 0.137972
vt 0.437649 0.193225
vt 0.389536 0.032808
vt 0.389536 0.186713
vt 0.288991 0.172046
vt 0.284807 0.116079
vt 0.162940 0.038516
vt 0.108079 0.194439
vn 0.000000 -0.415864 0.909427
vn 0.053971 -0.301504 0.951936
vn -0.146202 -0.210991 0.966492
vn -0.191041 -0.142313 0.971211
vn 0.146202 -0.210991 0.966492
vn 0.229064 -0.102231 0.968028
vn 0.000000 -0.041865 0.999123
vn 0.000000 -0.041865 0.999123
vn 0.000000 -0.041865 0.999123
vn 0.000000 -0.041865 0.999123
vn 0.089047 0.106204 0.990349
vn 0.254024 0.027340 0.966812
vn -0.236360 0.118067 0.964466
vn -0.195606 0.171936 0.965493
vn 0.000000 0.419338 0.907830
vn 0.195606 0.171936 0.965493
vn 0.000000 0.981014 0.193935
vn 0.000000 0.989964 0.141322
vn 0.159109 0.980723 0.113429
vn 0.107920 0.993288 0.041620
vn -0.144042 0.988724 0.040942
vn -0.009952 0.990745 0.135372
vn -0.059739 0.993116 0.100759
vn 0.074546 0.978379 0.192918
vn -0.000000 0.774318 -0.632797
vn -0.000000 -0.039096 -0.999236
vn -0.000000 0.774318 -0.632797
vn 0.000000 -0.110491 -0.993877
vn -0.000000 0.774318 -0.632797
vn 0.000000 -0.110279 -0.993901
vn -0.001273 -0.452457 -0.891785
vn -0.000000 -0.422646 -0.906295
vn 0.001273 -0.452466 -0.891781
vn -0.000526 -0.031942 -0.999490
vn 0.000000 -0.032755 -0.999463
vn 0.000526 -0.031942 -0.999490
vn 0.000000 -0.999123 -0.041865
vn 0.000000 -0.999123 -0.041865
vn 0.000000 -0.999123 -0.041865
vn 0.000000 -0.999123 -0.041865
vn 0.000000 -0.999123 -0.041865
vn 0.000000 -0.999123 -0.041865
vn 0.883042 -0.468882 -0.019647
vn 0.884763 -0.465547 -0.021463
vn 0.967130 -0.254033 -0.011233
vn 0.985042 -0.172119 -0.008251
vn 0.958717 0.284118 0.011827
vn 0.959111 0.282781 0.011849
vn 0.830804 0.556077 0.023300
vn 0.830804 0.556077 0.023300
vn -0.883042 -0.468882 -0.019647
vn -0.967091 -0.254194 -0.010959
vn -0.884524 -0.466013 -0.021210
vn -0.985087 -0.171871 -0.008059
vn -0.958669 0.284273 0.011989
vn -0.958969 0.283263 0.011869
vn -0.830804 0.556077 0.023300
vn -0.830804 0.556077 0.023300
vn -0.039334 0.969524 0.241817
vn -0.038829 0.968147 0.247353
vn -0.025358 0.921562 0.387403
vn 0.000000 0.788214 0.615401
vn -0.932038 -0.106890 0.346235
vn -0.949930 -0.043912 0.309363
vn -0.949505 -0.045665 0.310411
vn -0.956899 -0.012158 0.290167
vn -0.078412 -0.930054 -0.358959
vn -0.064051 -0.987461 -0.144288
vn -0.077911 -0.933242 -0.350697
vn 0.000000 -0.836933 0.547305
vn 0.557218 -0.034763 0.829638
vn 0.557218 -0.034763 0.829638
vn 0.557218 -0.034763 0.829639
vn 0.557218 -0.034763 0.829638
vn 0.000000 0.999123 0.041865
vn 0.000000 0.999123 0.041865
vn 0.000000 0.000000 0.000000
vn 0.000000 0.000000 0.000000
vn 0.000000 0.000000 0.000000
vn -0.000000 0.000000 0.000000
vn -1.000000 0.000000 0.000000
vn -0.000000 0.000000 0.000000
vn -0.000000 0.000000 0.000000
vn -0.159108 0.980723 0.113429
vn -0.107920 0.993288 0.041620
vn 0.144042 0.988724 0.040943
vn 0.059739 0.993116 0.100759
vn 0.009952 0.990745 0.135372
vn -0.074546 0.978379 0.192917
vn -0.017568 0.027991 0.999454
vn -0.018549 0.027248 0.999457
vn -0.019066 0.026856 0.999457
vn -0.024032 0.023092 0.999445
vn 0.989527 0.144222 0.006043
vn 0.989302 0.145667 0.007894
vn 0.989331 0.145482 0.007657
vn 0.988963 0.147783 0.010606
vn -0.000000 0.252245 -0.967664
vn 0.002175 0.253631 -0.967299
vn 0.001436 0.253161 -0.967423
vn 0.010731 0.259069 -0.965799
vn -0.787833 0.604196 0.119442
vn -0.788501 0.603024 0.120948
vn -0.788202 0.603550 0.120273
vn -0.789168 0.601846 0.122457
vn 0.017568 0.027991 0.999454
vn 0.019066 0.026856 0.999457
vn 0.018549 0.027248 0.999457
vn 0.024032 0.023092 0.999445
vn 0.787833 0.604196 0.119442
vn 0.788202 0.603550 0.120273
vn 0.788501 0.603024 0.120948
vn 0.789168 0.601845 0.122457
vn -0.000000 0.252245 -0.967664
vn -0.001436 0.253160 -0.967423
vn -0.002175 0.253631 -0.967299
vn -0.010731 0.259069 -0.965799
vn -0.989527 0.144222 0.006043
vn -0.989331 0.145482 0.007657
vn -0.989302 0.145667 0.007893
vn -0.988963 0.147782 0.010606
s 1
g pCube1
usemtl lambert2SG
f 2/64/1 5/65/2 1/63/3
f 1/63/3 5/65/2 4/66/4
f 2/64/1 3/67/5 5/65/2
f 5/65/2 3/67/5 6/68/6
s 2
f 25/75/7 26/76/8 28/110/9
f 28/110/9 26/76/8 27/77/10
s 1
f 5/65/2 6/68/6 8/70/11
f 8/70/11 6/68/6 9/69/12
f 7/73/13 8/70/11 10/74/14
f 10/74/14 8/70/11 11/72/15
f 9/69/12 12/71/16 8/70/11
f 8/70/11 12/71/16 11/72/15
s 4
f 30/30/17 35/31/18 29/29/19
f 29/29/19 35/31/18 37/32/20
s 5
f 39/40/21 40/41/22 38/39/23
f 38/39/23 40/41/22 41/42/24
s 6
f 14/90/25 17/86/26 13/89/27
f 13/89/27 17/86/26 16/85/28
f 14/90/25 15/92/29 17/86/26
f 17/86/26 15/92/29 18/91/30
f 16/85/28 17/86/26 19/81/31
f 19/81/31 17/86/26 20/82/32
f 18/91/30 21/87/33 17/86/26
f 17/86/26 21/87/33 20/82/32
f 19/81/31 20/82/32 22/84/34
f 22/84/34 20/82/32 23/83/35
f 21/87/33 24/88/36 20/82/32
f 20/82/32 24/88/36 23/83/35
s 7
f 22/49/37 23/50/38 1/52/39
f 1/52/39 23/50/38 2/51/40
f 23/50/38 24/53/41 2/51/40
f 2/51/40 24/53/41 3/54/42
s 8
f 3/1/43 24/2/44 6/4/45
f 6/4/45 24/2/44 21/3/46
f 6/4/45 21/3/46 9/6/47
f 9/6/47 21/3/46 18/5/48
f 18/5/48 15/7/49 9/6/47
f 9/6/47 15/7/49 12/8/50
s 9
f 1/10/51 4/11/52 22/9/53
f 22/9/53 4/11/52 19/12/54
f 4/11/52 7/13/55 19/12/54
f 19/12/54 7/13/55 16/14/56
f 16/14/56 7/13/55 13/16/57
f 13/16/57 7/13/55 10/15/58
s 10
f 5/56/59 26/57/60 4/55/61
f 4/55/61 26/57/60 25/58/62
s 11
f 5/17/63 8/18/64 26/20/65
f 26/20/65 8/18/64 27/19/66
s 12
f 8/59/67 7/60/68 27/62/69
f 27/62/69 7/60/68 28/61/70
s 13
f 7/79/71 4/80/72 28/78/73
f 28/78/73 4/80/72 25/109/74
s 14
f 29/29/75 10/33/76 30/30/77
f 10/33/76 11/34/78 30/30/77
s 15
f 32/38/79 13/37/80 37/32/81
f 29/29/82 37/32/81 10/33/83
f 13/37/80 10/33/83 37/32/81
s 4
f 30/30/17 33/35/84 35/31/18
f 35/31/18 33/35/84 36/36/85
s 16
f 43/47/86 42/46/87 45/48/88
f 45/48/88 42/46/87 44/45/89
s 17
f 35/93/90 36/94/91 38/96/92
f 38/96/92 36/94/91 39/95/93
s 18
f 34/22/94 40/23/95 36/21/96
f 36/21/96 40/23/95 39/24/97
s 19
f 31/98/98 41/99/99 34/97/100
f 34/97/100 41/99/99 40/100/101
s 20
f 35/44/102 38/39/103 31/43/104
f 31/43/104 38/39/103 41/42/105
s 21
f 35/102/106 42/103/107 37/101/108
f 37/101/108 42/103/107 43/104/109
s 22
f 35/44/110 31/43/111 42/46/112
f 42/46/112 31/43/111 44/45/113
s 23
f 31/105/114 32/106/115 44/108/116
f 44/108/116 32/106/115 45/107/117
s 24
f 32/25/118 37/26/119 45/28/120
f 45/28/120 37/26/119 43/27/121
