# This file uses centimeters as units for non-parametric coordinates.

mtllib merchantupgrade_armleft.mtl
g default
v 0.499979 1.196498 0.244379
v 0.704730 1.196498 0.244379
v 0.499979 1.529831 0.208997
v 0.754691 1.529831 0.208997
v 0.499979 1.863165 0.208997
v 0.754691 1.863165 0.208997
v 0.499979 2.196498 0.244379
v 0.704730 2.196498 0.244379
v 0.499979 2.196498 -0.082090
v 0.704730 2.196498 -0.082090
v 0.499979 1.863164 -0.082090
v 0.754691 1.863164 -0.082090
v 0.499979 1.529831 -0.082090
v 0.754691 1.529831 -0.082090
v 0.499979 1.196498 -0.082090
v 0.704730 1.196498 -0.082090
vt 0.741026 0.777134
vt 0.833023 0.777134
vt 0.833023 0.811527
vt 0.741026 0.811527
vt 0.729843 0.742741
vt 0.833023 0.742741
vt 0.833023 0.845921
vt 0.729843 0.845921
vt 0.835123 0.742741
vt 0.938303 0.742741
vt 0.927121 0.777134
vt 0.835123 0.777134
vt 0.927121 0.811527
vt 0.835123 0.811527
vt 0.938303 0.845921
vt 0.835123 0.845921
vt 0.827149 0.747737
vt 0.930329 0.747737
vt 0.930329 0.850917
vt 0.827149 0.850917
vt 0.722097 0.747737
vt 0.825277 0.747737
vt 0.825277 0.850917
vt 0.722097 0.850917
vt 0.733316 0.848100
vt 0.733316 0.744920
vt 0.767709 0.719743
vt 0.767709 0.848100
vt 0.802103 0.719743
vt 0.802103 0.848100
vt 0.836496 0.744920
vt 0.836496 0.848100
vt 0.838596 0.848100
vt 0.838596 0.744920
vt 0.872989 0.719743
vt 0.872989 0.848100
vt 0.907383 0.719743
vt 0.907383 0.848100
vt 0.941776 0.744920
vt 0.941776 0.848100
vn 0.000000 0.105554 0.994414
vn 0.000000 0.105554 0.994414
vn 0.000000 0.048587 0.998819
vn 0.000000 0.040301 0.999188
vn 0.000000 -0.048587 0.998819
vn 0.000000 -0.040301 0.999188
vn 0.000000 -0.105554 0.994414
vn 0.000000 -0.105554 0.994414
vn 0.000000 1.000000 0.000000
vn 0.000000 1.000000 0.000000
vn 0.000000 1.000000 0.000000
vn 0.000000 1.000000 0.000000
vn 0.000000 0.000000 -1.000000
vn 0.000000 0.000000 -1.000000
vn 0.000000 0.000000 -1.000000
vn 0.000000 0.000000 -1.000000
vn 0.000000 0.000000 -1.000000
vn 0.000000 0.000000 -1.000000
vn 0.000000 0.000000 -1.000000
vn 0.000000 0.000000 -1.000000
vn 0.000000 -1.000000 0.000000
vn 0.000000 -1.000000 0.000000
vn 0.000000 -1.000000 0.000000
vn 0.000000 -1.000000 0.000000
vn 0.988953 -0.148227 0.000000
vn 0.988953 -0.148227 0.000000
vn 0.996500 -0.083595 0.000000
vn 0.997204 -0.074732 0.000000
vn 0.996500 0.083595 0.000000
vn 0.997204 0.074732 0.000000
vn 0.988953 0.148227 0.000000
vn 0.988953 0.148227 0.000000
vn -1.000000 0.000000 0.000000
vn -1.000000 0.000000 0.000000
vn -1.000000 0.000000 0.000000
vn -1.000000 0.000000 0.000000
vn -1.000000 0.000000 0.000000
vn -1.000000 0.000000 0.000000
vn -1.000000 0.000000 0.000000
vn -1.000000 0.000000 0.000000
s 1
g pCube3
usemtl lambert2SG
f 1/25/1 2/26/2 3/28/3
f 3/28/3 2/26/2 4/27/4
f 3/28/3 4/27/4 5/30/5
f 5/30/5 4/27/4 6/29/6
f 6/29/6 8/31/7 5/30/5
f 5/30/5 8/31/7 7/32/8
s 2
f 7/17/9 8/18/10 9/20/11
f 9/20/11 8/18/10 10/19/12
s 3
f 9/33/13 10/34/14 11/36/15
f 11/36/15 10/34/14 12/35/16
f 11/36/15 12/35/16 13/38/17
f 13/38/17 12/35/16 14/37/18
f 14/37/18 16/39/19 13/38/17
f 13/38/17 16/39/19 15/40/20
s 4
f 15/21/21 16/22/22 1/24/23
f 1/24/23 16/22/22 2/23/24
s 5
f 2/5/25 16/6/26 4/1/27
f 4/1/27 16/6/26 14/2/28
f 4/1/27 14/2/28 6/4/29
f 6/4/29 14/2/28 12/3/30
f 12/3/30 10/7/31 6/4/29
f 6/4/29 10/7/31 8/8/32
s 6
f 1/10/33 3/11/34 15/9/35
f 15/9/35 3/11/34 13/12/36
f 13/12/36 3/11/34 11/14/37
f 11/14/37 3/11/34 5/13/38
f 11/14/37 5/13/38 9/16/39
f 9/16/39 5/13/38 7/15/40
