# This file uses centimeters as units for non-parametric coordinates.

mtllib togaman_head.mtl
g default
v -0.405898 2.480281 -0.159737
v -0.645201 2.480281 0.205446
v -0.405898 2.411392 0.570630
v -0.405898 3.627672 -0.159737
v -0.645201 3.922454 0.205446
v -0.405898 3.627672 0.570630
v -0.000000 4.445436 -0.645166
v 0.000000 3.627672 0.205446
v 0.000000 3.922454 0.785929
v 0.405898 3.627672 -0.159737
v 0.645201 3.922454 0.205446
v 0.405898 3.627672 0.570630
v 0.405898 2.480281 -0.159737
v 0.645201 2.480281 0.205446
v 0.405898 2.411392 0.570630
v -0.000000 2.480281 -0.375037
v 0.000000 2.480281 0.205446
v 0.000000 2.137095 0.785929
v 0.394250 2.647509 0.762801
v 0.000000 2.478359 0.895569
v 0.394250 3.397548 0.762801
v 0.000000 3.579331 0.895569
v -0.394250 2.647509 0.762801
v -0.394250 3.397548 0.762801
vt 0.168846 0.736010
vt 0.226710 0.736010
vt 0.168846 0.868795
vt 0.226710 0.902909
vt 0.284573 0.728038
vt 0.284573 0.868795
vt 0.168772 0.868278
vt 0.134658 0.810414
vt 0.226636 0.810414
vt 0.168772 0.752550
vt 0.226636 0.718436
vt 0.284499 0.868278
vt 0.318614 0.810414
vt 0.284499 0.752550
vt 0.226129 0.903424
vt 0.226129 0.736526
vt 0.283993 0.869310
vt 0.283993 0.736526
vt 0.168266 0.869310
vt 0.168266 0.728553
vt 0.169053 0.752550
vt 0.226917 0.810414
vt 0.134939 0.810414
vt 0.284780 0.752550
vt 0.318895 0.810414
vt 0.169053 0.868277
vt 0.226917 0.902392
vt 0.284780 0.868277
vt 0.283331 0.755690
vt 0.283331 0.842490
vt 0.227128 0.736115
vt 0.227128 0.863528
vt 0.170925 0.755690
vt 0.170925 0.842490
vt 0.318107 0.736526
vt 0.360910 0.963948
vt 0.134732 0.736010
vt 0.091929 0.963433
vt 0.226917 0.718436
vt 0.226636 0.945194
vt 0.227128 0.696622
vt 0.284992 0.728365
vt 0.137816 0.755878
vt 0.137816 0.842678
vt 0.227128 0.903236
vt 0.284992 0.869122
vt 0.169264 0.728365
vt 0.169264 0.869122
vt 0.315023 0.755363
vt 0.315023 0.842163
vn -0.836414 0.000000 -0.548099
vn -0.999385 0.000000 0.035078
vn -0.836414 0.000000 -0.548099
vn -0.836414 0.000000 -0.548099
vn -0.999385 0.000000 0.035078
vn -1.000000 0.000000 0.000000
vn -0.888473 0.000000 0.458928
vn -0.864414 0.000000 0.502780
vn -0.999385 0.000000 0.035078
vn -0.999385 0.000000 0.035078
vn -0.864414 0.000000 0.502780
vn -1.000000 0.000000 0.000000
vn -0.340775 0.860469 0.378769
vn 0.415566 0.909563 -0.000000
vn 0.000000 0.974082 0.226194
vn 0.000000 0.974082 0.226194
vn 0.000000 1.000000 -0.000000
vn -0.000000 0.891620 -0.452785
vn 0.340775 0.860469 0.378769
vn 0.000000 0.974082 0.226194
vn -0.415566 0.909563 0.000000
vn 0.000000 0.974082 0.226194
vn -0.000000 1.000000 0.000000
vn -0.415566 0.909563 0.000000
vn 1.000000 0.000000 -0.000000
vn 0.999385 0.000000 0.035078
vn 0.836414 0.000000 -0.548099
vn 0.836414 0.000000 -0.548099
vn 0.999385 0.000000 0.035078
vn 0.836414 0.000000 -0.548099
vn 1.000000 0.000000 -0.000000
vn 0.864414 0.000000 0.502780
vn 0.999385 0.000000 0.035078
vn 0.999385 0.000000 0.035078
vn 0.864414 0.000000 0.502780
vn 0.888473 0.000000 0.458928
vn 0.000000 -1.000000 0.000000
vn -0.000000 -0.980793 -0.195049
vn 0.000000 -1.000000 0.000000
vn -0.000000 -0.980793 -0.195049
vn 0.170655 -0.916220 -0.362517
vn -0.000000 -0.860814 -0.508919
vn 0.000000 -1.000000 0.000000
vn -0.000000 -0.980793 -0.195049
vn -0.000000 -0.995564 -0.094087
vn -0.000000 -0.980793 -0.195049
vn -0.170655 -0.916220 -0.362517
vn -0.000000 -0.995564 -0.094087
vn 0.374849 -0.156440 0.913792
vn 0.367303 0.123286 0.921894
vn 0.000000 -0.141532 0.989934
vn 0.000000 -0.141532 0.989934
vn 0.367303 0.123286 0.921894
vn 0.000000 0.124956 0.992162
vn -0.374848 -0.156440 0.913792
vn 0.000000 -0.141532 0.989934
vn -0.367303 0.123286 0.921894
vn -0.367303 0.123286 0.921894
vn 0.000000 -0.141532 0.989934
vn 0.000000 0.124956 0.992162
vn 0.468588 0.000000 -0.883417
vn -0.000000 -0.065221 -0.997871
vn 0.653781 -0.090309 -0.751275
vn 0.653781 -0.090309 -0.751275
vn -0.000000 -0.065221 -0.997871
vn -0.000000 -0.136179 -0.990684
vn -0.468588 0.000000 -0.883417
vn -0.653781 -0.090309 -0.751275
vn -0.000000 -0.065221 -0.997871
vn -0.000000 -0.065221 -0.997871
vn -0.653781 -0.090309 -0.751275
vn -0.000000 -0.136179 -0.990684
vn 0.000000 -1.000000 0.000000
vn -0.000000 -0.980793 -0.195049
vn 0.000000 -1.000000 0.000000
vn 0.000000 -1.000000 0.000000
vn -0.000000 -0.995564 -0.094087
vn -0.000000 -0.980793 -0.195049
vn -0.000000 -0.980793 -0.195049
vn -0.000000 -0.860814 -0.508919
vn -0.170655 -0.916220 -0.362517
vn -0.000000 -0.995564 -0.094087
vn 0.170655 -0.916220 -0.362517
vn -0.000000 -0.980793 -0.195049
vn 0.000000 0.720889 0.693051
vn 0.000000 0.974082 0.226194
vn 0.340775 0.860469 0.378769
vn -0.340775 0.860469 0.378769
vn 0.000000 0.974082 0.226194
vn 0.000000 0.720889 0.693051
vn 0.415566 0.909563 -0.000000
vn 0.000000 1.000000 -0.000000
vn 0.000000 0.974082 0.226194
vn 0.000000 0.974082 0.226194
vn -0.000000 0.891620 -0.452785
vn -0.000000 1.000000 0.000000
vn 0.579847 -0.249205 0.775676
vn 0.524435 -0.418701 0.741389
vn 0.000000 -0.141532 0.989934
vn 0.000000 -0.141532 0.989934
vn 0.524435 -0.418701 0.741389
vn 0.374849 -0.156440 0.913792
vn 0.888473 0.000000 0.458928
vn 0.864414 0.000000 0.502780
vn 0.998168 0.000000 0.060503
vn 0.998168 0.000000 0.060503
vn 0.864414 0.000000 0.502780
vn 0.998168 0.000000 0.060503
vn 0.587662 0.246270 0.770717
vn 0.000000 0.124956 0.992162
vn 0.536494 0.419058 0.732506
vn 0.536494 0.419058 0.732506
vn 0.000000 0.124956 0.992162
vn 0.367303 0.123286 0.921894
vn -0.579847 -0.249205 0.775676
vn 0.000000 -0.141532 0.989934
vn -0.524435 -0.418702 0.741389
vn -0.524435 -0.418702 0.741389
vn 0.000000 -0.141532 0.989934
vn -0.374848 -0.156440 0.913792
vn -0.587662 0.246270 0.770717
vn -0.536494 0.419058 0.732506
vn 0.000000 0.124956 0.992162
vn 0.000000 0.124956 0.992162
vn -0.536494 0.419058 0.732506
vn -0.367303 0.123286 0.921894
vn -0.888473 0.000000 0.458928
vn -0.998168 0.000000 0.060503
vn -0.864414 0.000000 0.502780
vn -0.864414 0.000000 0.502780
vn -0.998168 0.000000 0.060503
vn -0.998168 0.000000 0.060502
s off
g togaman_head_pCube1
usemtl initialShadingGroup
f 1/1/1 2/2/2 4/3/3
f 4/3/4 2/2/5 5/4/6
f 3/5/7 6/6/8 2/2/9
f 2/2/10 6/6/11 5/4/12
f 4/7/13 5/8/14 8/9/15
f 8/9/16 6/10/17 9/11/18
f 10/12/19 8/9/20 11/13/21
f 8/9/22 12/14/23 11/13/24
f 11/15/25 14/16/26 10/17/27
f 10/17/28 14/16/29 13/18/30
f 11/15/31 12/19/32 14/16/33
f 14/16/34 12/19/35 15/20/36
f 13/21/37 17/22/38 16/23/39
f 17/22/40 15/24/41 18/25/42
f 1/26/43 17/22/44 2/27/45
f 17/22/46 3/28/47 2/27/48
f 19/29/49 21/30/50 20/31/51
f 20/31/52 21/30/53 22/32/54
f 23/33/55 20/31/56 24/34/57
f 24/34/58 20/31/59 22/32/60
f 13/18/61 16/35/62 10/17/63
f 10/17/64 16/35/65 7/36/66
f 1/1/67 4/3/68 16/37/69
f 16/37/70 4/3/71 7/38/72
f 16/23/73 17/22/74 1/26/75
f 13/21/76 14/39/77 17/22/78
f 17/22/79 18/25/80 3/28/81
f 14/39/82 15/24/83 17/22/84
f 7/40/85 8/9/86 10/12/87
f 4/7/88 8/9/89 7/40/90
f 5/8/91 6/10/92 8/9/93
f 8/9/94 9/11/95 12/14/96
f 18/41/97 15/42/98 20/31/99
f 20/31/100 15/42/101 19/29/102
f 15/20/103 12/19/104 19/43/105
f 19/43/106 12/19/107 21/44/108
f 9/45/109 22/32/110 12/46/111
f 12/46/112 22/32/113 21/30/114
f 18/41/115 20/31/116 3/47/117
f 3/47/118 20/31/119 23/33/120
f 9/45/121 6/48/122 22/32/123
f 22/32/124 6/48/125 24/34/126
f 3/5/127 23/49/128 6/6/129
f 6/6/130 23/49/131 24/50/132
