# This file uses centimeters as units for non-parametric coordinates.

mtllib togaman_body.mtl
g default
v -0.500000 1.444367 -0.394622
v -0.754079 1.444367 0.105378
v -0.500000 1.444367 0.513263
v -0.500000 2.444368 -0.394622
v -0.754079 2.444368 0.105378
v -0.648915 2.189833 0.513263
v -0.000000 2.444368 -0.394622
v 0.000000 2.444368 0.105378
v 0.000000 2.444368 0.600914
v 0.500000 2.444368 -0.394622
v 0.754079 2.444368 0.105378
v 0.648915 2.189833 0.661770
v 0.500000 1.444367 -0.394622
v 0.754079 1.444367 0.105378
v 0.500000 1.444367 0.513263
v -0.000000 1.444367 -0.394622
v 0.000000 1.444367 0.599847
v 0.442122 1.011299 -0.337064
v 0.666790 1.011299 0.105058
v -0.000000 1.011299 -0.337064
v 0.442122 1.011299 0.465728
v 0.000000 1.011299 0.542289
v -0.666790 1.011299 0.105058
v -0.442122 1.011299 -0.337064
v -0.442122 1.011299 0.465728
v 0.494698 0.731531 -0.337064
v 0.746082 0.731531 0.105058
v 0.000000 0.731531 0.105058
v -0.000000 0.731531 -0.337064
v 0.494698 0.731531 0.465728
v 0.000000 0.731531 0.542289
v -0.746082 0.731531 0.105058
v -0.494698 0.731531 -0.337064
v -0.494698 0.731531 0.465728
vt 0.694513 0.750208
vt 0.747315 0.750208
vt 0.694513 0.855812
vt 0.747315 0.855812
vt 0.790390 0.750208
vt 0.790390 0.828932
vt 0.722897 0.909580
vt 0.643263 0.909580
vt 0.696065 0.856778
vt 0.643263 0.856778
vt 0.711791 0.952654
vt 0.643263 0.961911
vt 0.590461 0.856778
vt 0.563629 0.909580
vt 0.574735 0.968337
vt 0.587658 0.855799
vt 0.534856 0.855799
vt 0.587657 0.750194
vt 0.534855 0.750194
vt 0.476098 0.828919
vt 0.491781 0.750194
vt 0.563147 0.626301
vt 0.641936 0.626300
vt 0.589694 0.672990
vt 0.641936 0.672990
vt 0.589694 0.588212
vt 0.641937 0.580127
vt 0.694179 0.672990
vt 0.720726 0.626301
vt 0.694179 0.588212
vt 0.693551 0.748966
vt 0.709277 0.827690
vt 0.640749 0.748966
vt 0.640749 0.854570
vt 0.587947 0.748966
vt 0.572221 0.827690
vt 0.588237 0.750100
vt 0.641039 0.750100
vt 0.588237 0.855704
vt 0.641039 0.855704
vt 0.693841 0.750100
vt 0.693841 0.855704
vt 0.534889 0.704461
vt 0.581579 0.704461
vt 0.594349 0.704367
vt 0.641039 0.704367
vt 0.720382 0.748966
vt 0.711164 0.703232
vt 0.687439 0.703232
vt 0.640749 0.703232
vt 0.747282 0.704474
vt 0.700592 0.704474
vt 0.687729 0.704367
vt 0.594059 0.703232
vt 0.561115 0.748966
vt 0.570333 0.703232
vt 0.581579 0.674916
vt 0.534889 0.674916
vt 0.641039 0.674822
vt 0.588797 0.674822
vt 0.692991 0.673688
vt 0.719538 0.673688
vt 0.640749 0.673688
vt 0.700592 0.674929
vt 0.747282 0.674929
vt 0.693281 0.674822
vt 0.588506 0.673688
vt 0.561959 0.673688
vn -0.890367 -0.050391 -0.452447
vn -0.992720 -0.095196 -0.073795
vn -0.891499 0.000000 -0.453022
vn -0.891499 0.000000 -0.453022
vn -0.992720 -0.095196 -0.073795
vn -0.972016 0.000000 -0.234916
vn -0.836751 -0.167843 0.521227
vn -0.946906 -0.040906 0.318899
vn -0.992720 -0.095196 -0.073795
vn -0.992720 -0.095196 -0.073795
vn -0.946906 -0.040906 0.318899
vn -0.972016 0.000000 -0.234916
vn 0.000000 0.954415 0.298482
vn -0.008506 0.992109 0.125088
vn 0.000000 1.000000 0.000000
vn 0.000000 1.000000 0.000000
vn -0.008506 0.992109 0.125088
vn 0.000000 1.000000 0.000000
vn 0.000000 0.954415 0.298482
vn -0.135141 0.922781 0.360849
vn -0.008506 0.992109 0.125088
vn -0.008506 0.992109 0.125088
vn -0.135141 0.922781 0.360849
vn 0.026806 0.999641 -0.000000
vn 0.000000 1.000000 0.000000
vn -0.008506 0.992109 0.125088
vn 0.000000 1.000000 0.000000
vn 0.000000 1.000000 0.000000
vn -0.008506 0.992109 0.125088
vn 0.000000 0.965883 0.258977
vn 0.026806 0.999641 -0.000000
vn 0.116472 0.947548 0.297637
vn -0.008506 0.992109 0.125088
vn -0.008506 0.992109 0.125088
vn 0.116472 0.947548 0.297637
vn 0.000000 0.965883 0.258977
vn 0.891499 0.000000 -0.453022
vn 0.981436 0.000000 -0.191792
vn 0.890367 -0.050391 -0.452447
vn 0.890367 -0.050391 -0.452447
vn 0.981436 0.000000 -0.191792
vn 0.991888 -0.104256 -0.072726
vn 0.981436 0.000000 -0.191792
vn 0.964657 -0.056083 0.257471
vn 0.991888 -0.104256 -0.072726
vn 0.991888 -0.104256 -0.072726
vn 0.964657 -0.056083 0.257471
vn 0.825447 -0.232918 0.514186
vn 0.000000 -1.000000 0.000000
vn 0.000000 -1.000000 0.000000
vn 0.000000 -1.000000 0.000000
vn 0.000000 -1.000000 0.000000
vn 0.000000 -1.000000 0.000000
vn -0.000000 -1.000000 -0.000001
vn 0.000000 -1.000000 0.000000
vn 0.000000 -1.000000 0.000000
vn 0.000000 -1.000000 0.000000
vn 0.000000 -1.000000 0.000000
vn 0.000000 -1.000000 0.000000
vn 0.000000 -1.000000 0.000001
vn -0.000000 -1.000000 -0.000001
vn 0.000000 -1.000000 0.000000
vn 0.000000 -1.000000 0.000000
vn 0.000000 -1.000000 0.000000
vn 0.000000 -1.000000 0.000000
vn 0.000000 -1.000000 0.000000
vn 0.000000 -1.000000 0.000001
vn 0.000000 -1.000000 0.000000
vn 0.000000 -1.000000 0.000000
vn 0.000000 -1.000000 0.000000
vn 0.000000 -1.000000 0.000000
vn 0.000000 -1.000000 0.000000
vn 0.167389 -0.193907 0.966634
vn -0.040836 -0.047358 0.998043
vn -0.047215 -0.077812 0.995849
vn -0.047215 -0.077812 0.995849
vn -0.040836 -0.047358 0.998043
vn -0.113696 -0.001060 0.993515
vn -0.170262 -0.065376 0.983228
vn -0.047215 -0.077812 0.995849
vn -0.140868 -0.007638 0.989999
vn -0.140868 -0.007638 0.989999
vn -0.047215 -0.077812 0.995849
vn -0.113696 -0.001060 0.993515
vn -0.000000 -0.037726 -0.999288
vn -0.000000 -0.038472 -0.999260
vn -0.000000 0.000000 -1.000000
vn -0.000000 0.000000 -1.000000
vn -0.000000 -0.038472 -0.999260
vn -0.000000 0.000000 -1.000000
vn -0.000000 -0.038472 -0.999260
vn -0.000000 -0.037726 -0.999288
vn -0.000000 0.000000 -1.000000
vn -0.000000 0.000000 -1.000000
vn -0.000000 -0.037726 -0.999288
vn -0.000000 0.000000 -1.000000
vn 0.991888 -0.104256 -0.072726
vn 0.885551 -0.025258 -0.463856
vn 0.890367 -0.050391 -0.452447
vn 0.890367 -0.050391 -0.452447
vn 0.885551 -0.025258 -0.463856
vn 0.890360 -0.050549 -0.452443
vn -0.000000 -0.037726 -0.999288
vn -0.000000 -0.079213 -0.996858
vn -0.000000 -0.038472 -0.999260
vn -0.000000 -0.038472 -0.999260
vn -0.000000 -0.079213 -0.996858
vn -0.000000 -0.080483 -0.996756
vn 0.991888 -0.104256 -0.072726
vn 0.825447 -0.232918 0.514186
vn 0.841617 -0.024815 0.539504
vn 0.841617 -0.024815 0.539504
vn 0.825447 -0.232918 0.514186
vn 0.847828 -0.047643 0.528127
vn 0.167389 -0.193907 0.966634
vn -0.047215 -0.077812 0.995849
vn 0.165189 -0.069680 0.983797
vn 0.165189 -0.069680 0.983797
vn -0.047215 -0.077812 0.995849
vn 0.000000 -0.080928 0.996720
vn -0.992720 -0.095196 -0.073795
vn -0.890367 -0.050391 -0.452447
vn -0.885551 -0.025258 -0.463856
vn -0.885551 -0.025258 -0.463856
vn -0.890367 -0.050391 -0.452447
vn -0.890360 -0.050549 -0.452443
vn -0.000000 -0.037726 -0.999288
vn -0.000000 -0.038472 -0.999260
vn -0.000000 -0.079213 -0.996858
vn -0.000000 -0.079213 -0.996858
vn -0.000000 -0.038472 -0.999260
vn -0.000000 -0.080483 -0.996756
vn -0.170262 -0.065376 0.983228
vn -0.165189 -0.069680 0.983797
vn -0.047215 -0.077812 0.995849
vn -0.047215 -0.077812 0.995849
vn -0.165189 -0.069680 0.983797
vn 0.000000 -0.080928 0.996720
vn -0.992720 -0.095196 -0.073795
vn -0.841617 -0.024815 0.539504
vn -0.836751 -0.167843 0.521227
vn -0.836751 -0.167843 0.521227
vn -0.841617 -0.024815 0.539504
vn -0.847828 -0.047643 0.528127
vn 0.890360 -0.050549 -0.452443
vn 0.885551 -0.025258 -0.463856
vn 0.868047 0.190553 -0.458459
vn 0.868047 0.190553 -0.458459
vn 0.885551 -0.025258 -0.463856
vn 0.844064 0.239226 -0.479923
vn -0.000000 -0.080483 -0.996756
vn -0.000000 -0.079213 -0.996858
vn -0.000000 0.000000 -1.000000
vn -0.000000 0.000000 -1.000000
vn -0.000000 -0.079213 -0.996858
vn -0.000000 0.000000 -1.000000
vn 0.847828 -0.047643 0.528127
vn 0.823813 0.184324 0.536057
vn 0.841617 -0.024815 0.539504
vn 0.841617 -0.024815 0.539504
vn 0.823813 0.184324 0.536057
vn 0.799073 0.226475 0.556948
vn 0.000000 -0.080928 0.996720
vn 0.000000 0.011085 0.999939
vn 0.165189 -0.069680 0.983797
vn 0.165189 -0.069680 0.983797
vn 0.000000 0.011085 0.999939
vn 0.152879 0.028730 0.987827
vn -0.890360 -0.050549 -0.452443
vn -0.868047 0.190553 -0.458459
vn -0.885551 -0.025258 -0.463856
vn -0.885551 -0.025258 -0.463856
vn -0.868047 0.190553 -0.458459
vn -0.844064 0.239226 -0.479923
vn -0.000000 -0.080483 -0.996756
vn -0.000000 0.000000 -1.000000
vn -0.000000 -0.079213 -0.996858
vn -0.000000 -0.079213 -0.996858
vn -0.000000 0.000000 -1.000000
vn -0.000000 0.000000 -1.000000
vn 0.000000 -0.080928 0.996720
vn -0.165189 -0.069680 0.983797
vn 0.000000 0.011085 0.999939
vn 0.000000 0.011085 0.999939
vn -0.165189 -0.069680 0.983797
vn -0.152879 0.028730 0.987827
vn -0.847828 -0.047643 0.528127
vn -0.841617 -0.024815 0.539504
vn -0.823813 0.184324 0.536057
vn -0.823813 0.184324 0.536057
vn -0.841617 -0.024815 0.539504
vn -0.799073 0.226475 0.556948
s off
g pCube2
usemtl initialShadingGroup
f 1/1/1 2/2/2 4/3/3
f 4/3/4 2/2/5 5/4/6
f 3/5/7 6/6/8 2/2/9
f 2/2/10 6/6/11 5/4/12
f 5/7/13 8/8/14 4/9/15
f 4/9/16 8/8/17 7/10/18
f 5/7/19 6/11/20 8/8/21
f 8/8/22 6/11/23 9/12/24
f 7/10/25 8/8/26 10/13/27
f 10/13/28 8/8/29 11/14/30
f 9/12/31 12/15/32 8/8/33
f 8/8/34 12/15/35 11/14/36
f 10/16/37 11/17/38 13/18/39
f 13/18/40 11/17/41 14/19/42
f 11/17/43 12/20/44 14/19/45
f 14/19/46 12/20/47 15/21/48
f 27/22/49 28/23/50 26/24/51
f 26/24/52 28/23/53 29/25/54
f 27/22/55 30/26/56 28/23/57
f 28/23/58 30/26/59 31/27/60
f 29/25/61 28/23/62 33/28/63
f 33/28/64 28/23/65 32/29/66
f 31/27/67 34/30/68 28/23/69
f 28/23/70 34/30/71 32/29/72
f 15/31/73 12/32/74 17/33/75
f 17/33/76 12/32/77 9/34/78
f 3/35/79 17/33/80 6/36/81
f 6/36/82 17/33/83 9/34/84
f 13/37/85 16/38/86 10/39/87
f 10/39/88 16/38/89 7/40/90
f 16/38/91 1/41/92 7/40/93
f 7/40/94 1/41/95 4/42/96
f 14/19/97 19/43/98 13/18/99
f 13/18/100 19/43/101 18/44/102
f 13/37/103 18/45/104 16/38/105
f 16/38/106 18/45/107 20/46/108
f 14/47/109 15/31/110 19/48/111
f 19/48/112 15/31/113 21/49/114
f 15/31/115 17/33/116 21/49/117
f 21/49/118 17/33/119 22/50/120
f 2/2/121 1/1/122 23/51/123
f 23/51/124 1/1/125 24/52/126
f 1/41/127 16/38/128 24/53/129
f 24/53/130 16/38/131 20/46/132
f 3/35/133 25/54/134 17/33/135
f 17/33/136 25/54/137 22/50/138
f 2/55/139 23/56/140 3/35/141
f 3/35/142 23/56/143 25/54/144
f 18/44/145 19/43/146 26/57/147
f 26/57/148 19/43/149 27/58/150
f 20/46/151 18/45/152 29/59/153
f 29/59/154 18/45/155 26/60/156
f 21/49/157 30/61/158 19/48/159
f 19/48/160 30/61/161 27/62/162
f 22/50/163 31/63/164 21/49/165
f 21/49/166 31/63/167 30/61/168
f 24/52/169 33/64/170 23/51/171
f 23/51/172 33/64/173 32/65/174
f 20/46/175 29/59/176 24/53/177
f 24/53/178 29/59/179 33/66/180
f 22/50/181 25/54/182 31/63/183
f 31/63/184 25/54/185 34/67/186
f 25/54/187 23/56/188 34/67/189
f 34/67/190 23/56/191 32/68/192
