# This file uses centimeters as units for non-parametric coordinates.

mtllib togaman_leg.mtl
g default
v -0.205218 -0.998081 0.161895
v 0.085402 -0.998081 0.182337
v -0.205218 0.001919 0.161895
v 0.205218 0.001919 0.182337
v -0.205218 0.001919 -0.083403
v 0.205218 0.001919 -0.103846
v -0.205218 -0.998081 -0.083403
v 0.085402 -0.998081 -0.103846
vt 0.236837 0.174518
vt 0.326192 0.174518
vt 0.236837 0.300713
vt 0.363032 0.300713
vt 0.827224 0.556986
vt 0.935418 0.547970
vt 0.827224 0.665180
vt 0.935418 0.674197
vt 0.361868 0.300989
vt 0.325029 0.174794
vt 0.235673 0.300989
vt 0.235673 0.174794
vt 0.108437 0.050617
vt 0.197792 0.040100
vt 0.108437 0.176812
vt 0.197792 0.187328
vt 0.326121 0.321879
vt 0.326121 0.174650
vt 0.452316 0.321879
vt 0.452316 0.174650
vt 0.108074 0.299394
vt 0.108074 0.173199
vt 0.234270 0.299394
vt 0.234270 0.173199
vn -0.070168 0.000000 0.997535
vn -0.058486 0.003410 0.998282
vn -0.056195 0.004079 0.998411
vn -0.056195 0.004079 0.998411
vn -0.058486 0.003410 0.998282
vn -0.049744 0.005960 0.998744
vn 0.000000 1.000000 0.000000
vn 0.000000 1.000000 0.000000
vn 0.000000 1.000000 0.000000
vn 0.000000 1.000000 0.000000
vn 0.000000 1.000000 0.000000
vn 0.000000 1.000000 0.000000
vn -0.049744 0.005960 -0.998744
vn -0.058486 0.003410 -0.998282
vn -0.056195 0.004079 -0.998411
vn -0.056195 0.004079 -0.998411
vn -0.058486 0.003410 -0.998282
vn -0.070168 0.000000 -0.997535
vn 0.000000 -1.000000 0.000000
vn 0.000000 -1.000000 0.000000
vn 0.000000 -1.000000 0.000000
vn 0.000000 -1.000000 0.000000
vn 0.000000 -1.000000 0.000000
vn 0.000000 -1.000000 0.000000
vn 0.992898 -0.118965 0.000000
vn 0.992898 -0.118965 0.000000
vn 0.992898 -0.118965 0.000000
vn 0.992898 -0.118965 0.000000
vn 0.992898 -0.118965 0.000000
vn 0.992898 -0.118965 0.000000
vn -1.000000 0.000000 0.000000
vn -1.000000 0.000000 0.000000
vn -1.000000 0.000000 0.000000
vn -1.000000 0.000000 0.000000
vn -1.000000 0.000000 0.000000
vn -1.000000 0.000000 0.000000
s off
g pCube7
usemtl lambert2SG
f 1/1/1 2/2/2 3/3/3
f 3/3/4 2/2/5 4/4/6
f 3/5/7 4/6/8 5/7/9
f 5/7/10 4/6/11 6/8/12
f 6/9/13 8/10/14 5/11/15
f 5/11/16 8/10/17 7/12/18
f 7/13/19 8/14/20 1/15/21
f 1/15/22 8/14/23 2/16/24
f 2/17/25 8/18/26 4/19/27
f 4/19/28 8/18/29 6/20/30
f 7/21/31 1/22/32 5/23/33
f 5/23/34 1/22/35 3/24/36
